<svg xmlns="http://www.w3.org/2000/svg" viewBox="0 0 499.7 104.61"><defs><style>.a{fill:#fc5185;}</style></defs><title>snapback</title><path class="a" d="M31.1,65.51q-0.22,1.32-.44,2.92a13.23,13.23,0,0,0-.06,3.2,11,11,0,0,0,.72,3,5.06,5.06,0,0,0,1.76,2.26,8.45,8.45,0,0,0,5.84,1.49A21.68,21.68,0,0,0,46,76.43,39.14,39.14,0,0,0,53.49,72a52.68,52.68,0,0,0,6.89-6.18,39.12,39.12,0,0,0,5.24-6.95,20.45,20.45,0,0,0,2.65-6.89,5,5,0,0,0-.61-4,5,5,0,0,0-2.81-1.76,10.15,10.15,0,0,0-4-.11,22,22,0,0,0-4.08,1q-2,.77-4,1.76t-4.14,1.76a15.66,15.66,0,0,1-4.19.94,9.45,9.45,0,0,1-4.3-.72,9.33,9.33,0,0,1-6-6.51,18.3,18.3,0,0,1-2,.11h-2a53.2,53.2,0,0,1-8.55-.94,36.05,36.05,0,0,1-8.33-2.65,26.5,26.5,0,0,1-7.06-4.69A18.82,18.82,0,0,1,1.43,29a18,18,0,0,1-1-8A19.65,19.65,0,0,1,2.7,13.24a18.87,18.87,0,0,1,5.18-6,15.46,15.46,0,0,1,7.55-3,4.17,4.17,0,0,1,3.2.83,4.7,4.7,0,0,1,1.71,2.54,5.36,5.36,0,0,1-.11,3A3.79,3.79,0,0,1,18,12.91a7.82,7.82,0,0,0-3.2,2.54A9,9,0,0,0,13.18,19a7.46,7.46,0,0,0,.22,3.8,7.28,7.28,0,0,0,2.26,3.36,18.43,18.43,0,0,0,9.48,4,63,63,0,0,0,11.14.55,41.1,41.1,0,0,1,4.63-7.72A49.25,49.25,0,0,1,47.59,16a40.79,40.79,0,0,1,16.71-8.6,35.66,35.66,0,0,1,9.48-1q4.41,0.11,6.67,1.93A6.49,6.49,0,0,1,83,12.85a11.56,11.56,0,0,1-1.27,6,21.09,21.09,0,0,1-4.85,6.4,65,65,0,0,1-8.05,6.56,70.41,70.41,0,0,1-8.16,4.8,29.92,29.92,0,0,1,6.29-.44A17,17,0,0,1,73,37.5a13.9,13.9,0,0,1,6.29,5.18,18.09,18.09,0,0,1,2.65,7.22,24.83,24.83,0,0,1-.22,8,31.69,31.69,0,0,1-2.43,7.67A43.74,43.74,0,0,1,71.74,77,51.39,51.39,0,0,1,61.31,85.8a50.44,50.44,0,0,1-7.39,3.92,35.94,35.94,0,0,1-8.16,2.43,29.14,29.14,0,0,1-8.38.22,20.19,20.19,0,0,1-7.94-2.7,15.54,15.54,0,0,1-5.51-5.4,16.28,16.28,0,0,1-2.32-7,17.27,17.27,0,0,1,5.29-14,2.25,2.25,0,0,1,1.43-.72,2.45,2.45,0,0,1,1.43.33,2.88,2.88,0,0,1,1,1A2.41,2.41,0,0,1,31.1,65.51ZM56.68,26.8a61.82,61.82,0,0,0,6.51-3.42q3.31-2,5.51-3.53,3.64-2.65,2.92-3.53T66.5,18.2a41.66,41.66,0,0,0-5.18,3.92A50.7,50.7,0,0,0,56.68,26.8Z" transform="translate(-0.3)"/><path class="a" d="M117.89,33.2q-0.22.88-.44,1.54,1.65-2,3.42-3.86t3.64-3.64a33,33,0,0,1,4.69-3.47,18.43,18.43,0,0,1,5.29-2.26,13,13,0,0,1,5.46-.17,11.08,11.08,0,0,1,5.29,2.7,9.78,9.78,0,0,1,3,4.3,13.65,13.65,0,0,1,.72,5,21.36,21.36,0,0,1-.88,5.18,34,34,0,0,1-1.87,4.91,60.94,60.94,0,0,1-4,7.33q-2.21,3.47-4.41,7-0.33.55-1.27,1.93t-2,3.09q-1,1.71-2,3.47a11.28,11.28,0,0,0-1.16,2.87q-0.22,1.1.44,1.27t2.76-1.16a29.22,29.22,0,0,0,5.13-3.92q2.81-2.59,5.62-5.57t5.35-5.85q2.54-2.87,4.3-4.74a4,4,0,0,1,1.88-1.32,1.85,1.85,0,0,1,1.49.17,1.7,1.7,0,0,1,.72,1.32,3.64,3.64,0,0,1-.44,2,46.16,46.16,0,0,1-2.7,4.8q-1.71,2.7-3.69,5.51t-4,5.51q-2,2.7-3.69,4.69a60.69,60.69,0,0,1-4.25,4.69,25.58,25.58,0,0,1-5.07,4,15.52,15.52,0,0,1-5.68,2,10.92,10.92,0,0,1-6.29-1.1,11.4,11.4,0,0,1-4.8-4,13,13,0,0,1-2-5.46,19.1,19.1,0,0,1,.22-6.12,27.45,27.45,0,0,1,1.82-5.9,50.39,50.39,0,0,1,3.64-7.17q2.09-3.42,4.3-6.73,1.43-2.09,3-4.3t2.92-4.41q1.21-1.76,1-2.26T132.17,35a12.62,12.62,0,0,0-2.59,1.27q-1.55.94-3,1.93T124,40a15.14,15.14,0,0,1-1.32.94A87.14,87.14,0,0,0,109.73,53a81.32,81.32,0,0,0-7.61,10.09,46.68,46.68,0,0,0-5.29,11.41,9.87,9.87,0,0,0-.66,2.65,7.5,7.5,0,0,1-.66,2.43,5,5,0,0,1-1.87,2.21,6.2,6.2,0,0,1-2.65.94,8.18,8.18,0,0,1-5.62-1.49A7.41,7.41,0,0,1,82,75.71a20.5,20.5,0,0,1,.72-7.33,43.11,43.11,0,0,1,2.81-7.5q1.77-3.64,3-6a59,59,0,0,1,3.75-6.07q2.09-3,4.19-6.07t4-6.34a45.65,45.65,0,0,0,3.2-6.78,6.69,6.69,0,0,1,2-3.58,7,7,0,0,1,3.2-1.65,7.9,7.9,0,0,1,3.58.05,8.19,8.19,0,0,1,3.25,1.6,6.68,6.68,0,0,1,2.1,3A7.12,7.12,0,0,1,117.89,33.2Z" transform="translate(-0.3)"/><path class="a" d="M203.68,34.19a24,24,0,0,0-10.75,1.1,35.4,35.4,0,0,0-9.54,5,49.09,49.09,0,0,0-8,7.39A60.89,60.89,0,0,0,169.28,56q-4.41,7.28-4.25,9.54t3,0.72A34.5,34.5,0,0,0,175.51,60a87.15,87.15,0,0,0,9.1-11.36q1.1-1.54,2.37-3.2a24.14,24.14,0,0,1,2.76-3,14.41,14.41,0,0,1,3.36-2.32,11.67,11.67,0,0,1,4.08-1.16,8.53,8.53,0,0,1,4.47.66,6.27,6.27,0,0,1,2.76,2.48,6.42,6.42,0,0,1,.77,3.8,10.75,10.75,0,0,1-1.6,4.63,32.52,32.52,0,0,1-1.76,2.81q-1.1,1.6-2.26,3.47t-2.21,3.81a29.42,29.42,0,0,0-1.71,3.69q-0.88,2.43.44,2.26a7.83,7.83,0,0,0,3.53-2A67.58,67.58,0,0,0,207.27,57q3.47-4,6.67-7.44a2.51,2.51,0,0,1,1.38-.77,2,2,0,0,1,1.32.22,2.2,2.2,0,0,1,.94,1,2.65,2.65,0,0,1,.11,1.71,36.08,36.08,0,0,1-3.69,9,65.6,65.6,0,0,1-6.67,9.87,55.06,55.06,0,0,1-8.27,8.27,17.65,17.65,0,0,1-8.38,4.08,11.7,11.7,0,0,1-5-.39,10.09,10.09,0,0,1-4-2.26,11.38,11.38,0,0,1-2.65-3.8,12.07,12.07,0,0,1-1-4.91,23,23,0,0,1,.39-4.19,35,35,0,0,1,1-4.19q-1.88,3.2-4,6.95A41.79,41.79,0,0,1,170.82,77a19.3,19.3,0,0,1-5.9,4.74,10.59,10.59,0,0,1-7.44.66q-4.74-1.1-6.73-4.3a15.48,15.48,0,0,1-2.26-7.22,26.81,26.81,0,0,1,.77-8.27,44.37,44.37,0,0,1,2.48-7.44,63.84,63.84,0,0,1,9.48-15.27,61.53,61.53,0,0,1,13.34-12,45.7,45.7,0,0,1,7.66-4.14,35.14,35.14,0,0,1,8.66-2.48,25.66,25.66,0,0,1,8.71.17,17.68,17.68,0,0,1,7.94,3.8,4.71,4.71,0,0,1,1.71,2.81,5.3,5.3,0,0,1-2.32,5.4A4.63,4.63,0,0,1,203.68,34.19Z" transform="translate(-0.3)"/><path class="a" d="M237.21,31.32c0,0.37,0,.74-0.06,1.1s-0.09.74-.17,1.1q1.87-3,3.92-5.79a18,18,0,0,1,5-4.69,11.94,11.94,0,0,1,5.4-1.87,12.5,12.5,0,0,1,5.24.66A11.46,11.46,0,0,1,261,24.71a13.07,13.07,0,0,1,2.92,4.74,20.61,20.61,0,0,1,1.21,7.66,40.39,40.39,0,0,1-1,8.05A48.66,48.66,0,0,1,261.52,53a73.51,73.51,0,0,1-3.36,7q-1.32,2.32-2.81,4.74A37.07,37.07,0,0,1,252,69.37l1.82-.94q0.94-.5,1.82-1a41.19,41.19,0,0,0,10.15-8.11q4.08-4.57,8-9.1a5.58,5.58,0,0,1,2.48-1.87,1.77,1.77,0,0,1,1.76.22,2.37,2.37,0,0,1,.61,1.82,6.4,6.4,0,0,1-.77,2.81,81.05,81.05,0,0,1-8.22,12.57A54.81,54.81,0,0,1,259,76.1a38.89,38.89,0,0,1-12.79,6.17,30.13,30.13,0,0,1-14.5.22,19.25,19.25,0,0,1-8.71-.94A13.92,13.92,0,0,1,216,76.65q-2.21,4.19-4.19,8.55t-3.64,9a17.89,17.89,0,0,0-.88,2.7,22.86,22.86,0,0,1-.83,2.7,10.83,10.83,0,0,1-1.27,2.43,5.34,5.34,0,0,1-2.21,1.76,6.61,6.61,0,0,1-3.36.83,7,7,0,0,1-3.14-.83,8,8,0,0,1-2.48-2.1,7,7,0,0,1-1.38-3.09,13.88,13.88,0,0,1,.17-4.74,34.67,34.67,0,0,1,1.43-5.13q0.94-2.59,2-5t2-4.14q1.32-2.65,3.25-6.4t4.25-8.16q2.32-4.41,4.74-9.15t4.69-9.21q2.26-4.47,4.19-8.44t3.14-6.84a7.35,7.35,0,0,1,1.21-3.92,6.82,6.82,0,0,1,2.76-2.37,8.26,8.26,0,0,1,3.53-.77,7.9,7.9,0,0,1,3.47.77A6.5,6.5,0,0,1,237.21,31.32Zm-5.84,36.17a31.28,31.28,0,0,0,7.88-7.83A80.41,80.41,0,0,0,245,50.07,38.42,38.42,0,0,0,247.24,46a41.58,41.58,0,0,0,2-5.07,22.94,22.94,0,0,0,1-4.58q0.22-2-.72-2.65t-3.36.77a39,39,0,0,0-6.84,5.68A72.57,72.57,0,0,0,234,46.27q-2.59,3.25-4.91,6.67l-0.88,1.32q-0.44.66-1.1,1.82t-1.71,2.87q-1,1.71-2.48,4.47a6,6,0,0,1,2.59.11,7.79,7.79,0,0,1,2.1.94,16.13,16.13,0,0,1,1.87,1.43Q230.37,66.72,231.36,67.49Z" transform="translate(-0.3)"/><path class="a" d="M314.84,2A7.8,7.8,0,0,1,318,7a13.68,13.68,0,0,1-.5,5.79,23.58,23.58,0,0,1-2.59,5.73q-1.71,2.76-3.14,4.63a13.89,13.89,0,0,1,3.2,2.48,22.66,22.66,0,0,1,2.54,3.14,69.57,69.57,0,0,0,7.28.88q3.42,0.22,6.67.11a55.53,55.53,0,0,0,6.51-.61q3.25-.5,6.78-1.27a4.26,4.26,0,0,1,2.48.05,2.26,2.26,0,0,1,1.27,1.1,2.15,2.15,0,0,1,0,1.65,3.4,3.4,0,0,1-1.21,1.6,36.29,36.29,0,0,1-7.06,4.25,57.62,57.62,0,0,1-7.44,2.81,67.29,67.29,0,0,1-6.95,1.71,42.06,42.06,0,0,1-5.46.72,39.75,39.75,0,0,1-3.42,13,78,78,0,0,1-6.18,11.36,62.81,62.81,0,0,1-7.06,8.38,33.12,33.12,0,0,1-8.93,6.4,21.65,21.65,0,0,1-6.45,1.71,20.11,20.11,0,0,1-6.67-.33,16.13,16.13,0,0,1-6-2.7,12.49,12.49,0,0,1-4.19-5.29,19.24,19.24,0,0,1-1.65-8.88,39.84,39.84,0,0,1,1.6-9.37,64.42,64.42,0,0,1,3.47-9.15q2.09-4.47,4-8.22a238.8,238.8,0,0,1,12.57-21.5A73.54,73.54,0,0,1,301.33,5Q305.69,0.89,309,.44A7.51,7.51,0,0,1,314.84,2Zm-17.53,56.9a51.51,51.51,0,0,0,8.27-17.64,14.62,14.62,0,0,1-3.58-2,8.94,8.94,0,0,1-2.59-3.2,31.32,31.32,0,0,0-3.86,4.8q-1.88,2.81-3.53,5.79t-3,5.79q-1.38,2.81-2.26,4.69a52.28,52.28,0,0,0-2.92,8.05,8.2,8.2,0,0,0-.28,4.19,1.41,1.41,0,0,0,1.82.94,8.59,8.59,0,0,0,3.31-1.76,33.68,33.68,0,0,0,4.19-4A53.82,53.82,0,0,0,297.31,58.89Z" transform="translate(-0.3)"/><path class="a" d="M373.51,34.19a24,24,0,0,0-10.75,1.1,35.42,35.42,0,0,0-9.54,5,49.11,49.11,0,0,0-8,7.39A60.93,60.93,0,0,0,339.1,56q-4.41,7.28-4.25,9.54t3,0.72A34.5,34.5,0,0,0,345.33,60a87.23,87.23,0,0,0,9.1-11.36q1.1-1.54,2.37-3.2a24,24,0,0,1,2.76-3,14.4,14.4,0,0,1,3.36-2.32A11.66,11.66,0,0,1,367,38.93a8.53,8.53,0,0,1,4.47.66,6.28,6.28,0,0,1,2.76,2.48,6.42,6.42,0,0,1,.77,3.8,10.76,10.76,0,0,1-1.6,4.63,32.4,32.4,0,0,1-1.76,2.81q-1.1,1.6-2.26,3.47t-2.21,3.81a29.36,29.36,0,0,0-1.71,3.69q-0.88,2.43.44,2.26a7.82,7.82,0,0,0,3.53-2A67.55,67.55,0,0,0,377.1,57q3.47-4,6.67-7.44a2.51,2.51,0,0,1,1.38-.77,2,2,0,0,1,1.32.22,2.2,2.2,0,0,1,.94,1,2.65,2.65,0,0,1,.11,1.71,36,36,0,0,1-3.69,9,65.46,65.46,0,0,1-6.67,9.87,55,55,0,0,1-8.27,8.27,17.65,17.65,0,0,1-8.38,4.08,11.71,11.71,0,0,1-5-.39,10.08,10.08,0,0,1-4-2.26,11.38,11.38,0,0,1-2.65-3.8,12.08,12.08,0,0,1-1-4.91,23.06,23.06,0,0,1,.39-4.19,34.86,34.86,0,0,1,1-4.19q-1.88,3.2-4,6.95A41.76,41.76,0,0,1,340.65,77a19.3,19.3,0,0,1-5.9,4.74,10.59,10.59,0,0,1-7.44.66q-4.74-1.1-6.73-4.3a15.48,15.48,0,0,1-2.26-7.22,26.8,26.8,0,0,1,.77-8.27,44.28,44.28,0,0,1,2.48-7.44,63.85,63.85,0,0,1,9.48-15.27,61.55,61.55,0,0,1,13.34-12,45.72,45.72,0,0,1,7.67-4.14,35.13,35.13,0,0,1,8.66-2.48,25.66,25.66,0,0,1,8.71.17,17.68,17.68,0,0,1,7.94,3.8,4.7,4.7,0,0,1,1.71,2.81,5.29,5.29,0,0,1-2.32,5.4A4.63,4.63,0,0,1,373.51,34.19Z" transform="translate(-0.3)"/><path class="a" d="M414.54,44.56a17.79,17.79,0,0,0,1.82-2.7,13.69,13.69,0,0,0,1.49-3.69,2,2,0,0,0-.33-2,1.89,1.89,0,0,0-1.87-.28,11,11,0,0,0-2.92,1.43,21.28,21.28,0,0,0-3.47,2.87q-2.21,2.21-4.19,4.63a49,49,0,0,0-3.64,5.07q-0.77,1.32-2.1,3.75a30.3,30.3,0,0,0-2.21,5.13,18,18,0,0,0-.94,5.24,4.82,4.82,0,0,0,1.6,4,6.61,6.61,0,0,0,5,1.6,19.43,19.43,0,0,0,6.4-1.6,47.24,47.24,0,0,0,7.06-3.75,73.23,73.23,0,0,0,6.89-5,71,71,0,0,0,5.9-5.35,57,57,0,0,0,4.19-4.69A2.81,2.81,0,0,1,435,47.86a1.58,1.58,0,0,1,1.49.55,3.82,3.82,0,0,1,.72,2,6.8,6.8,0,0,1-.39,3,23.67,23.67,0,0,1-2.32,5q-1.43,2.32-3,4.52a59.46,59.46,0,0,1-8.88,9.87,44.65,44.65,0,0,1-11,7.22,32.09,32.09,0,0,1-10.42,2.87,18.87,18.87,0,0,1-10.53-2,17.46,17.46,0,0,1-7.39-7.11,21.17,21.17,0,0,1-2.65-10,35.68,35.68,0,0,1,2.09-12.41,50.17,50.17,0,0,1,6.07-12,53,53,0,0,1,8.93-10,38.88,38.88,0,0,1,10.7-6.73,20,20,0,0,1,6.67-1.54,18.43,18.43,0,0,1,6.73.77,14.15,14.15,0,0,1,5.57,3.31,12,12,0,0,1,3.31,6.18,16,16,0,0,1,.17,6.06,20.85,20.85,0,0,1-1.87,5.9,22.36,22.36,0,0,1-3.53,5.18,16.32,16.32,0,0,1-4.8,3.69,4.4,4.4,0,0,1-3.36.39,5.6,5.6,0,0,1-2.65-1.71,5.15,5.15,0,0,1-1.21-3A4.53,4.53,0,0,1,414.54,44.56Z" transform="translate(-0.3)"/><path class="a" d="M454.46,38.05q1.87-2,4.52-4.52a64.74,64.74,0,0,1,5.79-4.91,62.2,62.2,0,0,1,6.51-4.3,24.62,24.62,0,0,1,6.73-2.7,15.38,15.38,0,0,1,6.45-.17,10.58,10.58,0,0,1,5.62,3.25,9.05,9.05,0,0,1,2.76,6.07,15.86,15.86,0,0,1-1.21,6.56,25,25,0,0,1-3.47,6,27.5,27.5,0,0,1-4,4.3,57.16,57.16,0,0,1-8,5.51,49.15,49.15,0,0,1-8.88,4,5.88,5.88,0,0,1,2.65,3.25,23.69,23.69,0,0,1,.94,4q0.27,2,.61,3.53a1.85,1.85,0,0,0,1.76,1.65,6.27,6.27,0,0,0,3.53-1,27.57,27.57,0,0,0,4.19-3.09q2.2-1.93,4.47-4.3t4.3-4.69q2-2.32,3.64-4.3t2.59-3.09a2.74,2.74,0,0,1,1.88-1,1.91,1.91,0,0,1,1.6.61,2.77,2.77,0,0,1,.61,1.93,4.81,4.81,0,0,1-1,2.7q-2.21,3.31-5,7.39t-5.79,8A87.85,87.85,0,0,1,482,75.88a30.51,30.51,0,0,1-6.4,5.18,14.81,14.81,0,0,1-4.91,1.76,11.85,11.85,0,0,1-5-.17,10.22,10.22,0,0,1-4.3-2.32,10.58,10.58,0,0,1-2.92-4.58,14.77,14.77,0,0,1-.88-5.62q0.11-2.87.11-5.73A4.13,4.13,0,0,0,456,60.77,12.16,12.16,0,0,0,451.48,59a1.69,1.69,0,0,1-1.38-.77,1.94,1.94,0,0,1-.22-1.43,2.89,2.89,0,0,1,.83-1.43,4.15,4.15,0,0,1,1.65-1A20.4,20.4,0,0,0,457,52.17a74.69,74.69,0,0,0,6.4-4.3q3.42-2.54,6.95-5.62A54.79,54.79,0,0,0,476.51,36q1.66-2,1.43-3.14t-2.76-.28a37.21,37.21,0,0,0-7.72,4,72.24,72.24,0,0,0-8.11,6.29,86.48,86.48,0,0,0-7.72,7.83,72.93,72.93,0,0,0-6.51,8.66,53.13,53.13,0,0,0-4.58,8.82,24,24,0,0,0-1.87,8.16,6.66,6.66,0,0,1-2.54,5.46q-2.43,1.82-6.4.39a6.3,6.3,0,0,1-4.36-4.91,20.17,20.17,0,0,1,.11-7.83A49.5,49.5,0,0,1,427.93,61q1.6-4.14,2.59-6.56a201.49,201.49,0,0,1,16.54-31.54q1.76-2.76,4.47-6.73a83.38,83.38,0,0,1,5.84-7.61,41,41,0,0,1,6.56-6.18A10.55,10.55,0,0,1,470.56,0a6.77,6.77,0,0,1,5.73,3.25,8.22,8.22,0,0,1,1,6.56,17.85,17.85,0,0,1-2,4.47,35.57,35.57,0,0,1-3,4.13q-1.65,2-3.42,3.8t-3.42,3.47q-2.1,2.1-4.19,4.08t-4.3,4Z" transform="translate(-0.3)"/></svg>