<?xml version="1.0" encoding="utf-8"?>
<!-- Generator: Adobe Illustrator 19.2.1, SVG Export Plug-In . SVG Version: 6.00 Build 0)  -->
<svg version="1.1" id="Layer_1" xmlns="http://www.w3.org/2000/svg" xmlns:xlink="http://www.w3.org/1999/xlink" x="0px" y="0px"
	 viewBox="0 0 100 100" style="enable-background:new 0 0 100 100;" xml:space="preserve">
<style type="text/css">
	.st0{fill:#FC5185;}
</style>
<g>
	<path class="st0" d="M1.2,23.4c5.1-3.9,10.6-7.1,16.4-9.6c5.8-2.5,11.8-4.5,18.1-5.8c2.5-0.5,5.4-0.9,8.7-1.3
		c3.3-0.4,6.5-0.4,9.7,0C57.3,7,60.3,7.9,63,9.1c2.7,1.3,4.9,3.3,6.4,6.1c0.4,0.7,0.6,1.4,0.7,2.2c0.1,0.7,0,1.4-0.2,2
		c-0.3,0.6-0.7,1-1.4,1.3c-0.7,0.3-1.6,0.3-2.7,0.1c-1.6-0.3-3.4-0.6-5.3-0.9c-1.9-0.3-3.9-0.5-5.9-0.6c-2-0.1-4.1-0.2-6.1-0.1
		c-2.1,0.1-4.1,0.3-6,0.7c-3,3.5-5.7,7.2-8.2,10.9c-2.4,3.8-4.7,7.5-7,11.1c-1.2,2.1-2.4,4.1-3.6,6.3c-1.2,2.1-2.3,4.3-3.3,6.5
		s-1.9,4.5-2.6,6.8c-0.7,2.3-1.3,4.6-1.6,7c-0.1,0.6-0.1,1.3-0.2,2c-0.1,0.7-0.2,1.4-0.4,2c-0.2,0.6-0.6,1.2-1,1.6
		c-0.5,0.5-1.1,0.7-1.9,0.9c-1.2,0.2-2.3,0-3.2-0.6c-0.9-0.6-1.7-1.4-2.4-2.4c-0.6-1-1.2-2.1-1.5-3.3c-0.4-1.2-0.6-2.2-0.8-3.1
		c-0.3-2.7-0.2-5.4,0.4-8c0.6-2.6,1.5-5.2,2.7-7.8c1.2-2.5,2.5-5,4.1-7.3c1.5-2.3,3.1-4.5,4.5-6.6c1.9-2.7,4-5.3,6.2-7.7
		c2.2-2.4,4.1-4.6,5.8-6.4c-4.4,0.8-8.7,1.8-13,2.8c-4.3,1-8.6,2-12.9,3c-0.8,0.2-1.4,0.1-1.8-0.1C0.4,27,0.1,26.7,0,26.2
		c-0.1-0.4,0-0.9,0.1-1.5C0.4,24.2,0.7,23.7,1.2,23.4z"/>
	<path class="st0" d="M75.3,38.9c2.1-1.5,3-2.5,2.8-2.9c-0.2-0.4-0.9-0.5-2.1-0.2c-1.3,0.3-2.7,0.8-4.4,1.5
		c-1.7,0.7-3.1,1.4-4.1,2.2c-1.8,1.3-3.1,2.5-4,3.7c-0.8,1.2-1.2,2.2-1,3c0.2,0.8,0.9,1.4,2.1,1.6c1.2,0.3,3,0.1,5.3-0.4
		c2-0.4,4.3-1.2,7-2.3c2.7-1.1,5.4-1.9,8.2-2.5c2.8-0.6,5.4-0.7,7.8-0.4c2.4,0.4,4.3,1.7,5.6,4c1.6,2.8,1.9,6.1,0.8,9.8
		c-1.1,3.7-3.1,7.5-6,11.3c-2.9,3.8-6.5,7.5-10.8,11C78.2,82,73.7,85,69,87.5c-4.8,2.5-9.5,4.3-14.2,5.3c-4.7,1-9,1-12.8-0.2
		c-1-0.3-1.9-0.7-2.9-1.4c-1-0.7-1.8-1.5-2.6-2.4C35.7,88,35,87,34.5,86c-0.5-1.1-0.8-2.1-0.8-3.2c0-1.4,0.4-2.5,1.1-3.5
		c0.7-1,1.6-1.7,2.7-2.1c1-0.4,2.1-0.4,3.2-0.2c1.1,0.3,2,0.9,2.7,2c0.9,1.4,2.3,2.2,4.3,2.3c2,0.1,4.2-0.2,6.8-0.9
		c2.5-0.7,5.3-1.8,8.2-3.3c2.9-1.5,5.8-3.1,8.6-5c2.8-1.8,5.5-3.8,8.1-5.8c2.5-2.1,4.7-4.1,6.4-6c1.7-1.9,3-3.7,3.8-5.3
		c0.8-1.6,0.8-2.9,0.2-3.8c-0.6-0.8-1.7-1.1-3.4-0.9c-1.7,0.2-3.6,0.5-5.8,1.2c-2.2,0.6-4.3,1.3-6.6,2c-2.2,0.7-4.1,1.3-5.6,1.6
		c-1.5,0.3-3.2,0.5-4.8,0.4c-1.7,0-3.2-0.3-4.7-0.8c-1.5-0.5-2.8-1.3-3.9-2.4c-1.1-1.1-1.9-2.5-2.4-4.3c-0.6-2-0.7-4-0.3-5.9
		c0.4-2,1.1-3.8,2.1-5.6c1-1.8,2.3-3.4,3.7-4.9c1.4-1.5,2.9-2.8,4.5-3.9c1.5-1,3.4-2,5.5-2.8c2.1-0.9,4.2-1.4,6.3-1.7
		c2.1-0.3,4.1-0.1,6.1,0.5c1.9,0.6,3.5,1.8,4.8,3.6c1.2,1.7,1.8,3.4,1.8,5.1c0,1.7-0.5,3.2-1.3,4.6c-0.8,1.4-2,2.5-3.5,3.5
		c-1.5,0.9-3.1,1.5-4.7,1.8c-0.6,0.1-1.2,0.1-1.7-0.1c-0.5-0.2-0.9-0.4-1.1-0.7c-0.2-0.3-0.3-0.6-0.2-1.1
		C74.5,39.7,74.8,39.3,75.3,38.9z"/>
</g>
</svg>
